<svg id="Layer_1" enable-background="new 0 0 510.111 510.111" height="512" viewBox="0 0 510.111 510.111" width="512" xmlns="http://www.w3.org/2000/svg"><g><g><g><path d="m468.599 266.035v-150.288c-45.522-69.655-124.179-115.692-213.599-115.692-98.131 0-158.58 55.352-158.747 55.445 0 0-2.513 3.137-2.983 5.222-3.818 16.948-7.385 39.663-7.385 56.238 0 55.666 18.565 107.152 49.705 149.074h333.009z" fill="#3b69af"/></g><g><g><path d="m127.984 290.272c-15.621 0-15.595-24.237 0-24.237h7.037v-12.267c-40.017-58.354-53.539-130.085-38.768-198.267-58.644 46.72-96.253 118.747-96.253 199.554 0 39.677 9.064 77.236 25.23 110.723h109.791v-75.506z" fill="#26457d"/></g></g></g><g fill="#2896ff"><path d="m445.298 122.296c-24.36 0-25.28 18-45.136 18-20.026 0-20.568-18-45.129-18-13.032 0-19.754 5.361-25.684 10.091-5.32 4.244-9.914 7.909-19.447 7.909-19.934 0-20.64-18-45.128-18-24.34 0-25.318 18-45.128 18-20.027 0-20.568-18-45.13-18-24.34 0-25.318 18-45.128 18-9.533 0-14.127-3.665-19.447-7.909-5.93-4.73-12.651-10.091-25.683-10.091-24.34 0-25.318 18-45.129 18-4.498 0-7.889-.823-10.783-2.13-1.532 2.964-3.008 5.96-4.426 8.99 3.996 1.858 8.847 3.141 15.209 3.141 24.34 0 25.318-18 45.129-18 9.532 0 14.127 3.665 19.447 7.909 5.93 4.73 12.651 10.091 25.684 10.091 13.032 0 19.752-5.361 25.682-10.091 5.32-4.244 9.914-7.909 19.446-7.909 19.936 0 20.64 18 45.13 18 13.032 0 19.752-5.361 25.682-10.091 5.32-4.244 9.914-7.909 19.446-7.909 9.531 0 14.126 3.665 19.445 7.909 5.93 4.73 12.65 10.091 25.683 10.091 24.34 0 25.32-18 45.131-18 20.026 0 20.568 18 45.129 18 24.344 0 25.322-18 45.136-18 19.147 0 20.382 16.448 42.21 17.894-1.687-3.735-3.463-7.422-5.323-11.059-12.051-3.782-16.259-16.836-36.888-16.836z"/><path d="m464.748 337.137c5.931 4.73 12.652 10.091 25.686 10.091v-10c-9.534 0-14.129-3.665-19.449-7.909-5.931-4.73-12.652-10.091-25.687-10.091-24.36 0-25.28 18-45.136 18-9.532 0-14.127-3.665-19.446-7.909-5.93-4.73-12.65-10.091-25.683-10.091-24.34 0-25.32 18-45.131 18-19.934 0-20.64-18-45.128-18-24.34 0-25.318 18-45.128 18-20.027 0-20.568-18-45.13-18-24.34 0-25.318 18-45.128 18-9.533 0-14.127-3.665-19.447-7.909-5.93-4.73-12.651-10.091-25.683-10.091-24.34 0-25.318 18-45.129 18-15.212 0-18.124-9.49-30.157-14.961 1.373 5.039 2.884 10.022 4.553 14.931 5.911 4.715 12.629 10.03 25.604 10.03 13.032 0 19.753-5.361 25.683-10.091 5.32-4.244 9.914-7.909 19.446-7.909s14.127 3.665 19.447 7.909c5.93 4.73 12.651 10.091 25.684 10.091 24.339 0 25.319-18 45.128-18 19.936 0 20.64 18 45.13 18 24.339 0 25.319-18 45.128-18 20.026 0 20.567 18 45.128 18 24.34 0 25.32-18 45.131-18 20.026 0 20.568 18 45.129 18 24.344 0 25.322-18 45.136-18 9.533 0 14.129 3.665 19.449 7.909z"/><path d="m39.128 297.995c24.34 0 25.318-18 45.129-18 20.027 0 20.568 18 45.13 18 24.339 0 25.319-18 45.128-18 19.936 0 20.64 18 45.13 18 24.339 0 25.319-18 45.128-18 20.026 0 20.567 18 45.128 18 24.34 0 25.32-18 45.131-18 20.026 0 20.568 18 45.129 18 24.344 0 25.322-18 45.136-18 20.028 0 20.573 18 45.136 18v-10c-20.029 0-20.571-18-45.136-18-13.033 0-19.755 5.361-25.685 10.091-5.321 4.244-9.917 7.909-19.451 7.909-9.532 0-14.127-3.665-19.446-7.909-5.93-4.73-12.65-10.091-25.683-10.091s-19.754 5.361-25.684 10.091c-5.32 4.244-9.914 7.909-19.447 7.909-9.532 0-14.127-3.665-19.446-7.909-5.93-4.73-12.65-10.091-25.682-10.091-24.34 0-25.318 18-45.128 18-9.533 0-14.127-3.665-19.447-7.909-5.93-4.73-12.651-10.091-25.684-10.091-13.032 0-19.753 5.361-25.683 10.091-5.32 4.244-9.914 7.909-19.446 7.909-9.533 0-14.127-3.665-19.447-7.909-5.93-4.73-12.651-10.091-25.683-10.091-24.34 0-25.318 18-45.129 18-18.264 0-19.806-14.485-38.649-17.494.208 3.477.47 6.939.815 10.376 12.813 3.413 16.689 17.118 37.836 17.118z"/><path d="m129.387 51.83c13.032 0 19.752-5.361 25.682-10.091 5.32-4.244 9.914-7.909 19.446-7.909 19.936 0 20.64 18 45.13 18 24.339 0 25.319-18 45.128-18 20.026 0 20.567 18 45.128 18 13.032 0 19.754-5.361 25.684-10.091 5.32-4.244 9.914-7.909 19.447-7.909 20.026 0 20.568 18 45.129 18 2.928 0 5.524-.282 7.877-.755-4.585-3.446-9.295-6.733-14.113-9.869-7.173-1.562-11.06-5.821-16.683-9.984-3.819-2.09-7.694-4.092-11.629-5.99-3.019-.872-6.488-1.402-10.581-1.402-13.032 0-19.754 5.361-25.684 10.091-5.32 4.244-9.914 7.909-19.447 7.909-19.934 0-20.64-18-45.128-18-24.34 0-25.318 18-45.128 18-20.027 0-20.568-18-45.13-18-24.34 0-25.318 18-45.128 18-4.731 0-8.244-.904-11.235-2.332-3.477 2.202-6.564 4.283-9.238 6.171 4.915 3.347 11.036 6.161 20.473 6.161z"/><path d="m445.298 171.529c-24.36 0-25.28 18-45.136 18-20.026 0-20.568-18-45.129-18-13.032 0-19.754 5.361-25.684 10.091-5.32 4.244-9.914 7.909-19.447 7.909-19.934 0-20.64-18-45.128-18-24.34 0-25.318 18-45.128 18-20.027 0-20.568-18-45.13-18-13.032 0-19.753 5.361-25.683 10.091-5.32 4.244-9.914 7.909-19.446 7.909-20.026 0-20.569-18-45.13-18-24.34 0-25.318 18-45.129 18-13.557 0-17.304-7.541-26.735-13.17-1.069 3.296-2.059 6.626-2.996 9.979 7.204 5.066 13.691 13.191 29.731 13.191 24.34 0 25.318-18 45.129-18 9.532 0 14.127 3.665 19.447 7.909 5.93 4.73 12.651 10.091 25.684 10.091 13.032 0 19.752-5.361 25.682-10.091 5.32-4.244 9.914-7.909 19.446-7.909 19.936 0 20.64 18 45.13 18 13.032 0 19.752-5.361 25.682-10.091 5.32-4.244 9.914-7.909 19.446-7.909 20.026 0 20.567 18 45.128 18 24.34 0 25.32-18 45.131-18 20.026 0 20.568 18 45.129 18 24.344 0 25.322-18 45.136-18 20.028 0 20.573 18 45.136 18v-10c-20.03 0-20.571-18-45.136-18z"/><path d="m84.257 83.063c20.027 0 20.568 18 45.13 18 24.339 0 25.319-18 45.128-18 19.936 0 20.64 18 45.13 18 13.032 0 19.752-5.361 25.682-10.091 5.32-4.244 9.914-7.909 19.446-7.909 20.026 0 20.567 18 45.128 18 13.032 0 19.754-5.361 25.684-10.091 5.32-4.244 9.914-7.909 19.447-7.909 20.026 0 20.568 18 45.129 18 23.469 0 25.46-16.912 43.151-17.938-2.716-2.974-5.501-5.883-8.354-8.725-15.814 4.436-17.635 16.664-34.798 16.664-20.026 0-20.568-18-45.129-18-24.34 0-25.32 18-45.131 18-9.532 0-14.127-3.665-19.446-7.909-5.93-4.73-12.65-10.091-25.682-10.091-24.34 0-25.318 18-45.128 18-20.027 0-20.568-18-45.13-18-24.34 0-25.318 18-45.128 18-9.533 0-14.127-3.665-19.447-7.909-5.93-4.73-12.651-10.091-25.683-10.091-3.313 0-6.215.349-8.803.944-7.602 7.539-14.716 15.567-21.326 24.009 12.015-5.487 14.937-14.954 30.13-14.954z"/><path d="m490.434 238.762c-20.029 0-20.571-18-45.136-18-24.36 0-25.28 18-45.136 18-9.532 0-14.127-3.665-19.446-7.909-5.93-4.73-12.65-10.091-25.683-10.091-24.34 0-25.32 18-45.131 18-19.934 0-20.64-18-45.128-18-24.34 0-25.318 18-45.128 18-9.533 0-14.127-3.665-19.447-7.909-5.93-4.73-12.651-10.091-25.684-10.091-24.34 0-25.318 18-45.128 18-20.026 0-20.569-18-45.13-18-24.34 0-25.318 18-45.129 18-17.74 0-19.542-13.507-36.923-17.175-.435 3.317-.82 6.649-1.127 10.004 13.105 3.359 16.735 17.171 38.05 17.171 24.34 0 25.318-18 45.129-18 9.532 0 14.127 3.665 19.447 7.909 5.93 4.73 12.651 10.091 25.684 10.091 13.032 0 19.752-5.361 25.682-10.091 5.32-4.244 9.914-7.909 19.446-7.909 19.936 0 20.64 18 45.13 18 24.339 0 25.319-18 45.128-18 20.026 0 20.567 18 45.128 18 24.34 0 25.32-18 45.131-18 20.026 0 20.568 18 45.129 18 24.344 0 25.322-18 45.136-18 20.028 0 20.573 18 45.136 18z"/></g><path d="m395.844 370.156-37.989-63.599-110.972-66.316-112.294 32.895-25.853 97.02z" fill="#ffa50a"/><path d="m390.257 360.803c-91.472 16.219-184.564-18.095-243.479-91.238l-12.188 3.57-31.706 118.986 23.831 83.348c37.685 21.983 81.512 34.586 128.286 34.586 65.45 0 125.58-24.797 170.997-65.847z" fill="#e69632"/><path d="m413.341 129.047-138.715 79.449-6.606 46.56 137.116 164.176c38.665-34.947 85.297-72.004 99.063-109.937.178-1.087 5.801-23.477 5.801-54.239 0-40.879-9.635-79.502-26.733-113.748z" fill="#e69632"/><g><path d="m359.301 364.35 66.69 79.852c38.665-34.947 66.674-81.666 78.208-134.908-40.187 32.01-90.257 52.131-144.898 55.056z" fill="#d77d14"/></g><path d="m110.809 385.823-64.361 15.98c21.109 29.945 48.503 55.138 80.266 73.665v-58.244z" fill="#ffc305"/><g><path d="m508.88 133.454c-4.01-2.728-8.83-6.722-7.634-9.513 1.982-4.624-3.963-9.908-.661-15.853s-1.982-5.945 1.321-13.871c3.303-7.927-1.982-9.908 0-15.193s3.963-13.872-1.321-17.174c-3.269-2.043-5.274-4.339-6.328-6.262-.877-1.6-2.621-2.539-4.443-2.449-3.302.163-8.173-.53-11.144-5.252-1.285-2.043-3.857-2.777-6.077-1.828-3.513 1.502-8.905 2.203-14.944-2.704 0 0-3.303-5.064-15.002 0-9.874 4.274-23.31-7.927-18.026-26.422 0 0-.496-3.964-7.067-1.592-2.281.824-4.716 1.078-7.125.791-3.406-.406-8.102.058-8.928 5.425-1.321 8.587-19.156 42.936-30.385 44.917-11.229 1.982-41.615 8.587-48.881 12.551-7.266 3.963-26.422 14.532-24.44 25.761s-22.911 9.248-21.364 29.064c.783 10.023-.859 14.301-2.672 16.081-1.271 1.248-1.503 3.163-.551 4.669 2.2 3.478 3.661 9.164-3.157 15.581-11.229 10.569-29.064 27.083-45.578 31.706-16.514 4.624-3.963 18.128-41.615 14.018s-25.761 26.936-40.954 32.881c-3.671 1.437-7.108 2.719-10.298 4.033v51.962h47.324l4.588-24.289 92.911 19.156 14.098-84.55c32.883-11.91 31.325-11.89 33.727-11.89 1.849-.14 4.422.549 7.172-1.284 3-1.524 6.367-5.968 11.716-3.828 2.658.631 8.097 5.017 13.009.652 1.534-1.364 3.552-2.052 5.6-1.913 6.776.458 22.29 1.305 25.878-.232 4.624-1.982 13.211-14.532 27.743-15.853s24.44-3.963 23.78-7.266c-.661-3.303-6.076-12.773-3.963-13.872 5.505-2.862.062-8.587 3.995-7.927 3.932.661 20.446 1.321 21.767-3.963s24.44-.661 42.275 4.624c0 0 6.606.617 3.303-6.957-1.608-3.688.072-5.894 2.22-7.186 1.758-1.059 1.826-3.595.131-4.749z" fill="#8bc852"/></g><g><path d="m133.77 251.944c-11.089 4.4-19.402 8.695-24.229 19.959-5.945 13.871-16.514 39.633-35.009 40.293-18.495.661-33.688 42.936-40.954 48.22-2.759 2.006-5.802 3.441-8.626 4.775 6.157 12.838 13.361 25.076 21.494 36.614l80.269 15.419s0-46.899 7.927-51.523 33.907-5.945 33.907-5.945l10.7-56.64c-17.347-14.921-32.664-32.133-45.479-51.172z" fill="#528e61"/></g></g></svg>